Coordinates
version=1
nRows=12
nColumns=33
inDegrees=yes

Units are S.I. units (second, meters, Newtons, ...)
Angles are in degrees.

endheader
time	ground_thorax_rot_x	ground_thorax_rot_y	ground_thorax_rot_z	ground_thorax_tx	ground_thorax_ty	ground_thorax_tz	clav_prot_r	clav_elev_r	scapula_abduction_r	scapula_elevation_r	scapula_upward_rot_r	scapula_winging_r	shoulder_elv_r	plane_of_elev_r	axial_rot_r	elbow_flexion_r	pro_sup_r	wrist_flex_r	wrist_dev_r	clav_prot_l	clav_elev_l	scapula_abduction_l	scapula_elevation_l	scapula_upward_rot_l	scapula_winging_l	shoulder_elv_l	plane_of_elev_l	axial_rot_l	elbow_flexion_l	pro_sup_l	wrist_flex_l	wrist_dev_l
      3.43000000	    -40.74955018	     -9.30015132	     13.90166156	   -226.24324170	    820.95613803	     -0.80970390	     10.39346497	    -45.00000000	     41.31804470	    -45.00000000	    -45.00000000	   2420.79031792	   -826.09375836	    147.43719926	    179.99999979	   1445.59161055	     52.69140036	     26.10367232	     11.92282634	     15.60724214	     38.44297851	    -38.62879644	    -45.00000000	    -44.76153915	   -995.35000977	   -454.46137740	    133.31028240	   -157.71249856	   2167.06789104	     32.76368581	      6.28607092	    -23.39736339
      3.44000000	    -40.77849135	     -9.13804021	     13.80162499	   -224.41666902	    821.39486399	     -0.96692292	     10.46725519	    -45.00000000	     41.38136792	    -45.00000000	    -45.00000000	   2420.92565142	   -825.96580944	    147.30974613	    179.99999979	   1445.99641191	     52.59846485	     26.01059459	     11.81170686	     15.67673832	     38.52937006	    -38.71986151	    -45.00000000	    -44.55623043	   -995.35571200	   -454.46940632	    133.28802657	   -157.85972155	   2167.16731228	     32.73607666	      6.26876444	    -23.39748805
      3.45000000	    -40.81742320	     -8.80986006	     13.61252221	   -222.42043959	    821.78198121	     -1.11709623	     10.58861043	    -45.00000000	     41.51849040	    -45.00000000	    -45.00000000	   2420.95448934	   -825.93991409	    147.07123978	    179.99999979	   1446.42207660	     52.49261664	     25.91005038	     11.69772531	     15.70034757	     38.62159291	    -38.98317010	    -45.00000000	    -44.30381766	   -995.27715230	   -454.58676146	    133.19877503	   -158.10085027	   2167.22892343	     32.68812091	      6.25568469	    -23.38604212
      3.46000000	    -40.91492764	     -8.60081270	     13.43286222	   -220.25209804	    822.11711528	     -1.25722260	     10.84855133	    -45.00000000	     41.63151309	    -45.00000000	    -45.00000000	   2421.09622888	   -825.87315273	    146.77324632	    179.99999979	   1446.71592148	     52.38410268	     25.73616026	     11.57198175	     15.87559330	     38.78921508	    -39.22416768	    -45.00000000	    -44.04683503	   -995.10991207	   -454.61315244	    133.13324556	   -158.44996530	   2167.29044015	     32.58399437	      6.22590949	    -23.35250249
      3.47000000	    -40.96029667	     -8.43861860	     13.31844076	   -217.91069496	    822.40293025	     -1.38238066	     10.91740625	    -45.00000000	     41.76338463	    -45.00000000	    -45.00000000	   2421.30510116	   -825.72440864	    146.60600647	    179.99999979	   1447.10691897	     52.22459921	     25.60195211	     11.46575359	     15.89530700	     38.89661569	    -39.36295399	    -45.00000000	    -43.68998222	   -995.09100952	   -454.64392705	    133.17146842	   -158.76860188	   2167.38418629	     32.41366785	      6.20033272	    -23.31317250
      3.48000000	    -40.99926414	     -8.30966109	     13.25324253	   -215.39578647	    822.64470630	     -1.48891132	     11.01184771	    -45.00000000	     41.91027648	    -45.00000000	    -45.00000000	   2421.53906182	   -825.56472504	    146.47831560	    179.99999979	   1447.50473323	     52.00990617	     25.43644436	     11.35165521	     16.01674491	     39.04094110	    -39.53473698	    -45.00000000	    -43.36642696	   -995.06002364	   -454.67923386	    133.22449863	   -159.07265260	   2167.50060185	     32.16642051	      6.17478545	    -23.26675070
      3.49000000	    -41.01201407	     -8.09674056	     13.13838575	   -212.70954311	    822.85030724	     -1.57268805	     11.05542140	    -45.00000000	     42.07094557	    -45.00000000	    -45.00000000	   2421.68405023	   -825.38467442	    146.25194135	    179.99999979	   1447.91397200	     51.74600315	     25.31098291	     11.29263053	     15.78993394	     39.05645047	    -39.65101284	    -45.00000000	    -42.87365552	   -995.09820652	   -454.69266750	    133.24209538	   -159.31359150	   2167.62606153	     31.88042654	      6.19272154	    -23.23334630
      3.50000000	    -41.03718215	     -7.95489305	     13.05396554	   -209.85602605	    823.02633873	     -1.63188625	     11.13235544	    -45.00000000	     42.20169898	    -45.00000000	    -45.00000000	   2421.92937478	   -825.20251033	    146.05362578	    179.99999979	   1448.31524870	     51.40880365	     25.12935177	     11.21758452	     15.80375724	     39.17171755	    -39.78415728	    -45.00000000	    -42.41132374	   -995.10980318	   -454.73687565	    133.28900602	   -159.54243048	   2167.73155043	     31.53126394	      6.22277095	    -23.19279934
      3.51000000	    -41.05051687	     -7.84682304	     13.05047629	   -206.83251929	    823.17839519	     -1.66486989	     11.24737319	    -45.00000000	     42.35301169	    -45.00000000	    -45.00000000	   2422.21310965	   -825.01565895	    145.95568267	    179.99999979	   1448.71163808	     50.95478479	     24.87530333	     11.11599878	     16.12455471	     39.44380269	    -40.07690480	    -45.00000000	    -42.08182989	   -995.02375223	   -454.83421142	    133.32965319	   -159.76485314	   2167.85454210	     31.05613078	      6.26579589	    -23.14579121
      3.52000000	    -41.07354629	     -7.68014892	     12.93716890	   -203.65371229	    823.31087725	     -1.67142176	     11.30252996	    -45.00000000	     42.48486077	    -45.00000000	    -45.00000000	   2422.38905436	   -824.83399007	    145.61242797	    179.99999979	   1449.05601449	     50.46816426	     24.70776250	     11.13614217	     15.77246588	     39.44056051	    -40.14398225	    -45.00000000	    -41.44546521	   -995.06931781	   -454.84099056	    133.31137672	   -159.88186519	   2167.93958353	     30.55642230	      6.38426816	    -23.10195604
      3.53000000	    -41.07991361	     -7.58755634	     12.92356588	   -200.31683710	    823.42315395	     -1.65115882	     11.40457243	    -45.00000000	     42.64670311	    -45.00000000	    -45.00000000	   2422.60521625	   -824.64757183	    145.38075549	    179.99999979	   1449.38538524	     49.88629288	     24.49003654	     11.15006073	     15.71397336	     39.52461138	    -40.33497988	    -45.00000000	    -40.96758078	   -995.08230875	   -454.86939295	    133.32724598	   -159.98420985	   2168.04113217	     29.97197801	      6.51922955	    -23.05296779
      3.54000000	    -41.07050707	     -7.49997767	     12.94397703	   -196.82804493	    823.51056514	     -1.60428354	     11.47776594	    -45.00000000	     42.79204182	    -45.00000000	    -45.00000000	   2422.82294915	   -824.44272416	    145.15838867	    179.99999979	   1449.68940379	     49.20855851	     24.25721632	     11.19247710	     15.68420627	     39.63789227	    -40.53672972	    -45.00000000	    -40.43361877	   -995.09301311	   -454.90843626	    133.32594448	   -160.03140559	   2168.14642225	     29.29602113	      6.70484793	    -23.00171566
